<mxfile host="app.diagrams.net" modified="2023-12-11T06:44:58.134Z" agent="Mozilla/5.0 (Windows NT 10.0; Win64; x64; rv:120.0) Gecko/20100101 Firefox/120.0" etag="ThKPQiflsO6DW4t2JS3h" version="21.7.4" type="github">
  <diagram name="第 1 页" id="u0LGNr-t3djCvt4QjqkG">
    <mxGraphModel dx="1290" dy="511" grid="1" gridSize="10" guides="1" tooltips="1" connect="1" arrows="1" fold="1" page="1" pageScale="1" pageWidth="827" pageHeight="1169" math="0" shadow="0">
      <root>
        <mxCell id="0" />
        <mxCell id="1" parent="0" />
        <mxCell id="iw972hRAmLJQ-zg026xT-1" value="&lt;div&gt;&lt;font style=&quot;font-size: 18px;&quot;&gt;&lt;font&gt;原&lt;/font&gt;&lt;/font&gt;&lt;/div&gt;&lt;div&gt;&lt;font size=&quot;3&quot;&gt;始&lt;/font&gt;&lt;/div&gt;&lt;div&gt;&lt;font size=&quot;3&quot;&gt;程&lt;/font&gt;&lt;/div&gt;&lt;div&gt;&lt;font size=&quot;3&quot;&gt;序&lt;/font&gt;&lt;/div&gt;" style="shape=offPageConnector;whiteSpace=wrap;html=1;" vertex="1" parent="1">
          <mxGeometry x="210" y="70" width="50" height="150" as="geometry" />
        </mxCell>
        <mxCell id="iw972hRAmLJQ-zg026xT-2" value="&lt;div&gt;&lt;font style=&quot;font-size: 18px;&quot;&gt;&lt;font&gt;原&lt;/font&gt;&lt;/font&gt;&lt;/div&gt;&lt;div&gt;&lt;font size=&quot;3&quot;&gt;始&lt;/font&gt;&lt;/div&gt;&lt;div&gt;&lt;font size=&quot;3&quot;&gt;程&lt;/font&gt;&lt;/div&gt;&lt;div&gt;&lt;font size=&quot;3&quot;&gt;序&lt;/font&gt;&lt;/div&gt;" style="shape=offPageConnector;whiteSpace=wrap;html=1;" vertex="1" parent="1">
          <mxGeometry x="210" y="370" width="50" height="150" as="geometry" />
        </mxCell>
        <mxCell id="iw972hRAmLJQ-zg026xT-3" value="&lt;div&gt;&lt;font style=&quot;font-size: 18px;&quot;&gt;自&lt;/font&gt;&lt;/div&gt;&lt;div&gt;&lt;font size=&quot;3&quot;&gt;定&lt;/font&gt;&lt;/div&gt;&lt;div&gt;&lt;font size=&quot;3&quot;&gt;义&lt;/font&gt;&lt;/div&gt;&lt;div&gt;&lt;font size=&quot;3&quot;&gt;程&lt;/font&gt;&lt;/div&gt;&lt;div&gt;&lt;font size=&quot;3&quot;&gt;序&lt;/font&gt;&lt;/div&gt;" style="shape=offPageConnector;whiteSpace=wrap;html=1;" vertex="1" parent="1">
          <mxGeometry x="140" y="230" width="50" height="120" as="geometry" />
        </mxCell>
        <mxCell id="iw972hRAmLJQ-zg026xT-4" style="edgeStyle=orthogonalEdgeStyle;rounded=0;orthogonalLoop=1;jettySize=auto;html=1;exitX=0.5;exitY=1;exitDx=0;exitDy=0;" edge="1" parent="1" source="iw972hRAmLJQ-zg026xT-1" target="iw972hRAmLJQ-zg026xT-1">
          <mxGeometry relative="1" as="geometry" />
        </mxCell>
        <mxCell id="iw972hRAmLJQ-zg026xT-8" value="" style="endArrow=none;dashed=1;html=1;rounded=0;labelBackgroundColor=default;strokeColor=default;fontFamily=Helvetica;fontSize=11;fontColor=default;shape=connector;entryX=0.5;entryY=1;entryDx=0;entryDy=0;exitX=0.5;exitY=0;exitDx=0;exitDy=0;" edge="1" parent="1" source="iw972hRAmLJQ-zg026xT-3" target="iw972hRAmLJQ-zg026xT-1">
          <mxGeometry width="50" height="50" relative="1" as="geometry">
            <mxPoint x="390" y="290" as="sourcePoint" />
            <mxPoint x="440" y="240" as="targetPoint" />
          </mxGeometry>
        </mxCell>
        <mxCell id="iw972hRAmLJQ-zg026xT-9" value="" style="endArrow=none;dashed=1;html=1;rounded=0;labelBackgroundColor=default;strokeColor=default;fontFamily=Helvetica;fontSize=11;fontColor=default;shape=connector;entryX=0.5;entryY=1;entryDx=0;entryDy=0;exitX=0.5;exitY=0;exitDx=0;exitDy=0;" edge="1" parent="1" source="iw972hRAmLJQ-zg026xT-2" target="iw972hRAmLJQ-zg026xT-3">
          <mxGeometry width="50" height="50" relative="1" as="geometry">
            <mxPoint x="390" y="290" as="sourcePoint" />
            <mxPoint x="310" y="260" as="targetPoint" />
          </mxGeometry>
        </mxCell>
        <mxCell id="iw972hRAmLJQ-zg026xT-10" value="" style="endArrow=classic;html=1;rounded=0;labelBackgroundColor=default;strokeColor=default;fontFamily=Helvetica;fontSize=11;fontColor=default;shape=connector;exitX=0.5;exitY=1;exitDx=0;exitDy=0;" edge="1" parent="1" source="iw972hRAmLJQ-zg026xT-1" target="iw972hRAmLJQ-zg026xT-2">
          <mxGeometry width="50" height="50" relative="1" as="geometry">
            <mxPoint x="390" y="290" as="sourcePoint" />
            <mxPoint x="360" y="430" as="targetPoint" />
          </mxGeometry>
        </mxCell>
        <mxCell id="iw972hRAmLJQ-zg026xT-11" value="" style="endArrow=none;html=1;rounded=0;labelBackgroundColor=default;strokeColor=default;fontFamily=Helvetica;fontSize=11;fontColor=default;shape=connector;entryX=0.5;entryY=1;entryDx=0;entryDy=0;" edge="1" parent="1" target="iw972hRAmLJQ-zg026xT-1">
          <mxGeometry width="50" height="50" relative="1" as="geometry">
            <mxPoint x="180" y="200" as="sourcePoint" />
            <mxPoint x="440" y="280" as="targetPoint" />
          </mxGeometry>
        </mxCell>
        <mxCell id="iw972hRAmLJQ-zg026xT-12" value="&lt;font style=&quot;font-size: 18px;&quot;&gt;hook&lt;/font&gt;" style="text;html=1;align=center;verticalAlign=middle;resizable=0;points=[];autosize=1;strokeColor=none;fillColor=none;fontSize=11;fontFamily=Helvetica;fontColor=default;" vertex="1" parent="1">
          <mxGeometry x="135" y="175" width="60" height="40" as="geometry" />
        </mxCell>
        <mxCell id="iw972hRAmLJQ-zg026xT-13" value="&lt;div&gt;&lt;font style=&quot;font-size: 18px;&quot;&gt;&lt;font&gt;原&lt;/font&gt;&lt;/font&gt;&lt;/div&gt;&lt;div&gt;&lt;font size=&quot;3&quot;&gt;始&lt;/font&gt;&lt;/div&gt;&lt;div&gt;&lt;font size=&quot;3&quot;&gt;程&lt;/font&gt;&lt;/div&gt;&lt;div&gt;&lt;font size=&quot;3&quot;&gt;序&lt;/font&gt;&lt;/div&gt;" style="shape=offPageConnector;whiteSpace=wrap;html=1;" vertex="1" parent="1">
          <mxGeometry x="315" y="70" width="50" height="150" as="geometry" />
        </mxCell>
        <mxCell id="iw972hRAmLJQ-zg026xT-14" value="&lt;div&gt;&lt;font style=&quot;font-size: 18px;&quot;&gt;&lt;font&gt;原&lt;/font&gt;&lt;/font&gt;&lt;/div&gt;&lt;div&gt;&lt;font size=&quot;3&quot;&gt;始&lt;/font&gt;&lt;/div&gt;&lt;div&gt;&lt;font size=&quot;3&quot;&gt;程&lt;/font&gt;&lt;/div&gt;&lt;div&gt;&lt;font size=&quot;3&quot;&gt;序&lt;/font&gt;&lt;/div&gt;" style="shape=offPageConnector;whiteSpace=wrap;html=1;" vertex="1" parent="1">
          <mxGeometry x="315" y="370" width="50" height="150" as="geometry" />
        </mxCell>
        <mxCell id="iw972hRAmLJQ-zg026xT-15" value="&lt;div&gt;&lt;font style=&quot;font-size: 18px;&quot;&gt;自&lt;/font&gt;&lt;/div&gt;&lt;div&gt;&lt;font size=&quot;3&quot;&gt;定&lt;/font&gt;&lt;/div&gt;&lt;div&gt;&lt;font size=&quot;3&quot;&gt;义&lt;/font&gt;&lt;/div&gt;&lt;div&gt;&lt;font size=&quot;3&quot;&gt;程&lt;/font&gt;&lt;/div&gt;&lt;div&gt;&lt;font size=&quot;3&quot;&gt;序&lt;/font&gt;&lt;/div&gt;" style="shape=offPageConnector;whiteSpace=wrap;html=1;" vertex="1" parent="1">
          <mxGeometry x="265" y="230" width="50" height="120" as="geometry" />
        </mxCell>
        <mxCell id="iw972hRAmLJQ-zg026xT-16" style="edgeStyle=orthogonalEdgeStyle;rounded=0;orthogonalLoop=1;jettySize=auto;html=1;exitX=0.5;exitY=1;exitDx=0;exitDy=0;" edge="1" parent="1" source="iw972hRAmLJQ-zg026xT-13" target="iw972hRAmLJQ-zg026xT-13">
          <mxGeometry relative="1" as="geometry" />
        </mxCell>
        <mxCell id="iw972hRAmLJQ-zg026xT-17" value="" style="endArrow=none;dashed=1;html=1;rounded=0;labelBackgroundColor=default;strokeColor=default;fontFamily=Helvetica;fontSize=11;fontColor=default;shape=connector;entryX=0.5;entryY=1;entryDx=0;entryDy=0;exitX=0.5;exitY=0;exitDx=0;exitDy=0;" edge="1" parent="1" source="iw972hRAmLJQ-zg026xT-15" target="iw972hRAmLJQ-zg026xT-13">
          <mxGeometry width="50" height="50" relative="1" as="geometry">
            <mxPoint x="495" y="290" as="sourcePoint" />
            <mxPoint x="545" y="240" as="targetPoint" />
          </mxGeometry>
        </mxCell>
        <mxCell id="iw972hRAmLJQ-zg026xT-18" value="" style="endArrow=none;dashed=1;html=1;rounded=0;labelBackgroundColor=default;strokeColor=default;fontFamily=Helvetica;fontSize=11;fontColor=default;shape=connector;entryX=0.5;entryY=1;entryDx=0;entryDy=0;exitX=0.5;exitY=0;exitDx=0;exitDy=0;" edge="1" parent="1" source="iw972hRAmLJQ-zg026xT-14" target="iw972hRAmLJQ-zg026xT-15">
          <mxGeometry width="50" height="50" relative="1" as="geometry">
            <mxPoint x="495" y="290" as="sourcePoint" />
            <mxPoint x="415" y="260" as="targetPoint" />
          </mxGeometry>
        </mxCell>
        <mxCell id="iw972hRAmLJQ-zg026xT-19" value="" style="endArrow=classic;html=1;rounded=0;labelBackgroundColor=default;strokeColor=default;fontFamily=Helvetica;fontSize=11;fontColor=default;shape=connector;exitX=0.5;exitY=1;exitDx=0;exitDy=0;entryX=0.5;entryY=0;entryDx=0;entryDy=0;" edge="1" parent="1" source="iw972hRAmLJQ-zg026xT-13" target="iw972hRAmLJQ-zg026xT-31">
          <mxGeometry width="50" height="50" relative="1" as="geometry">
            <mxPoint x="495" y="290" as="sourcePoint" />
            <mxPoint x="340" y="350" as="targetPoint" />
          </mxGeometry>
        </mxCell>
        <mxCell id="iw972hRAmLJQ-zg026xT-20" value="" style="endArrow=none;html=1;rounded=0;labelBackgroundColor=default;strokeColor=default;fontFamily=Helvetica;fontSize=11;fontColor=default;shape=connector;entryX=0.5;entryY=1;entryDx=0;entryDy=0;" edge="1" parent="1" target="iw972hRAmLJQ-zg026xT-13">
          <mxGeometry width="50" height="50" relative="1" as="geometry">
            <mxPoint x="285" y="200" as="sourcePoint" />
            <mxPoint x="545" y="280" as="targetPoint" />
          </mxGeometry>
        </mxCell>
        <mxCell id="iw972hRAmLJQ-zg026xT-21" value="&lt;font style=&quot;font-size: 18px;&quot;&gt;hook&lt;/font&gt;" style="text;html=1;align=center;verticalAlign=middle;resizable=0;points=[];autosize=1;strokeColor=none;fillColor=none;fontSize=11;fontFamily=Helvetica;fontColor=default;" vertex="1" parent="1">
          <mxGeometry x="240" y="175" width="60" height="40" as="geometry" />
        </mxCell>
        <mxCell id="iw972hRAmLJQ-zg026xT-31" value="&lt;div&gt;&lt;font style=&quot;font-size: 18px;&quot;&gt;自&lt;/font&gt;&lt;/div&gt;&lt;div&gt;&lt;font size=&quot;3&quot;&gt;定&lt;/font&gt;&lt;/div&gt;&lt;div&gt;&lt;font size=&quot;3&quot;&gt;义&lt;/font&gt;&lt;/div&gt;&lt;div&gt;&lt;font size=&quot;3&quot;&gt;程&lt;/font&gt;&lt;/div&gt;&lt;div&gt;&lt;font size=&quot;3&quot;&gt;序&lt;/font&gt;&lt;/div&gt;" style="shape=offPageConnector;whiteSpace=wrap;html=1;" vertex="1" parent="1">
          <mxGeometry x="374" y="230" width="50" height="120" as="geometry" />
        </mxCell>
        <mxCell id="iw972hRAmLJQ-zg026xT-32" value="" style="endArrow=classic;html=1;rounded=0;labelBackgroundColor=default;strokeColor=default;fontFamily=Helvetica;fontSize=11;fontColor=default;shape=connector;exitX=0.5;exitY=1;exitDx=0;exitDy=0;entryX=0.5;entryY=0;entryDx=0;entryDy=0;" edge="1" parent="1" source="iw972hRAmLJQ-zg026xT-31" target="iw972hRAmLJQ-zg026xT-14">
          <mxGeometry width="50" height="50" relative="1" as="geometry">
            <mxPoint x="350" y="330" as="sourcePoint" />
            <mxPoint x="400" y="280" as="targetPoint" />
          </mxGeometry>
        </mxCell>
        <mxCell id="iw972hRAmLJQ-zg026xT-33" value="&lt;font style=&quot;font-size: 18px;&quot;&gt;语&lt;br&gt;法&lt;br&gt;&lt;/font&gt;&lt;div&gt;&lt;font size=&quot;3&quot;&gt;解&lt;/font&gt;&lt;/div&gt;&lt;div&gt;&lt;font size=&quot;3&quot;&gt;析&lt;/font&gt;&lt;/div&gt;&lt;div&gt;&lt;font size=&quot;3&quot;&gt;器&lt;/font&gt;&lt;/div&gt;" style="shape=offPageConnector;whiteSpace=wrap;html=1;" vertex="1" parent="1">
          <mxGeometry x="575" y="70" width="50" height="150" as="geometry" />
        </mxCell>
        <mxCell id="iw972hRAmLJQ-zg026xT-34" value="&lt;div&gt;&lt;font style=&quot;font-size: 18px;&quot;&gt;执&lt;/font&gt;&lt;/div&gt;&lt;div&gt;&lt;font size=&quot;3&quot;&gt;行&lt;/font&gt;&lt;/div&gt;&lt;div&gt;&lt;font size=&quot;3&quot;&gt;器&lt;/font&gt;&lt;/div&gt;" style="shape=offPageConnector;whiteSpace=wrap;html=1;" vertex="1" parent="1">
          <mxGeometry x="575" y="370" width="50" height="150" as="geometry" />
        </mxCell>
        <mxCell id="iw972hRAmLJQ-zg026xT-35" value="&lt;div&gt;&lt;font style=&quot;font-size: 18px;&quot;&gt;pg_fga&lt;/font&gt;&lt;/div&gt;&lt;div&gt;&lt;font size=&quot;3&quot;&gt;插件的sql语句&lt;/font&gt;&lt;/div&gt;" style="shape=offPageConnector;whiteSpace=wrap;html=1;" vertex="1" parent="1">
          <mxGeometry x="480" y="230" width="75" height="120" as="geometry" />
        </mxCell>
        <mxCell id="iw972hRAmLJQ-zg026xT-36" style="edgeStyle=orthogonalEdgeStyle;rounded=0;orthogonalLoop=1;jettySize=auto;html=1;exitX=0.5;exitY=1;exitDx=0;exitDy=0;" edge="1" parent="1" source="iw972hRAmLJQ-zg026xT-33" target="iw972hRAmLJQ-zg026xT-33">
          <mxGeometry relative="1" as="geometry" />
        </mxCell>
        <mxCell id="iw972hRAmLJQ-zg026xT-37" value="" style="endArrow=none;dashed=1;html=1;rounded=0;labelBackgroundColor=default;strokeColor=default;fontFamily=Helvetica;fontSize=11;fontColor=default;shape=connector;entryX=0.5;entryY=1;entryDx=0;entryDy=0;exitX=0.5;exitY=0;exitDx=0;exitDy=0;" edge="1" parent="1" source="iw972hRAmLJQ-zg026xT-35" target="iw972hRAmLJQ-zg026xT-33">
          <mxGeometry width="50" height="50" relative="1" as="geometry">
            <mxPoint x="755" y="290" as="sourcePoint" />
            <mxPoint x="805" y="240" as="targetPoint" />
          </mxGeometry>
        </mxCell>
        <mxCell id="iw972hRAmLJQ-zg026xT-38" value="" style="endArrow=none;dashed=1;html=1;rounded=0;labelBackgroundColor=default;strokeColor=default;fontFamily=Helvetica;fontSize=11;fontColor=default;shape=connector;entryX=0.5;entryY=1;entryDx=0;entryDy=0;exitX=0.5;exitY=0;exitDx=0;exitDy=0;" edge="1" parent="1" source="iw972hRAmLJQ-zg026xT-34" target="iw972hRAmLJQ-zg026xT-35">
          <mxGeometry width="50" height="50" relative="1" as="geometry">
            <mxPoint x="755" y="290" as="sourcePoint" />
            <mxPoint x="675" y="260" as="targetPoint" />
          </mxGeometry>
        </mxCell>
        <mxCell id="iw972hRAmLJQ-zg026xT-39" value="" style="endArrow=classic;html=1;rounded=0;labelBackgroundColor=default;strokeColor=default;fontFamily=Helvetica;fontSize=11;fontColor=default;shape=connector;exitX=0.5;exitY=1;exitDx=0;exitDy=0;" edge="1" parent="1" source="iw972hRAmLJQ-zg026xT-33" target="iw972hRAmLJQ-zg026xT-34">
          <mxGeometry width="50" height="50" relative="1" as="geometry">
            <mxPoint x="755" y="290" as="sourcePoint" />
            <mxPoint x="725" y="430" as="targetPoint" />
          </mxGeometry>
        </mxCell>
        <mxCell id="iw972hRAmLJQ-zg026xT-40" value="" style="endArrow=none;html=1;rounded=0;labelBackgroundColor=default;strokeColor=default;fontFamily=Helvetica;fontSize=11;fontColor=default;shape=connector;entryX=0.5;entryY=1;entryDx=0;entryDy=0;" edge="1" parent="1" target="iw972hRAmLJQ-zg026xT-33">
          <mxGeometry width="50" height="50" relative="1" as="geometry">
            <mxPoint x="545" y="200" as="sourcePoint" />
            <mxPoint x="805" y="280" as="targetPoint" />
          </mxGeometry>
        </mxCell>
        <mxCell id="iw972hRAmLJQ-zg026xT-41" value="&lt;font style=&quot;font-size: 18px;&quot;&gt;hook&lt;/font&gt;" style="text;html=1;align=center;verticalAlign=middle;resizable=0;points=[];autosize=1;strokeColor=none;fillColor=none;fontSize=11;fontFamily=Helvetica;fontColor=default;" vertex="1" parent="1">
          <mxGeometry x="500" y="175" width="60" height="40" as="geometry" />
        </mxCell>
      </root>
    </mxGraphModel>
  </diagram>
</mxfile>
